<?xml version="1.0" encoding="iso-8859-1"?>
<!-- Generator: Adobe Illustrator 19.0.0, SVG Export Plug-In . SVG Version: 6.00 Build 0)  -->
<svg version="1.1" id="Layer_1" xmlns="http://www.w3.org/2000/svg" xmlns:xlink="http://www.w3.org/1999/xlink" x="0px" y="0px"
	 viewBox="0 0 511.844 511.844" style="enable-background:new 0 0 511.844 511.844;" xml:space="preserve">
<path style="fill:#434A54;" d="M271.913,10.669c0,5.889-4.772,10.668-10.661,10.668s-10.668-4.779-10.668-10.668
	S255.363,0,261.251,0C267.141,0,271.913,4.78,271.913,10.669z"/>
<path style="fill:#CCD1D9;" d="M261.251,10.669c-17.674,0-31.99,14.323-31.99,31.99v162.122h63.988V42.659
	C293.25,24.992,278.91,10.669,261.251,10.669z"/>
<path style="fill:#5D9CEC;" d="M90.632,383.883c-3.499,2.797-47.931,40.473-46.807,80.008c0.328,28.881,20.861,47.406,46.807,47.953
	c25.945-0.547,46.478-19.072,46.806-47.953C138.564,424.356,94.14,386.68,90.632,383.883z"/>
<path style="fill:#4A89DC;" d="M90.632,383.883c-0.977,0.781-5.163,4.296-10.661,9.825c14.137,14.199,36.949,41.706,36.146,70.183
	c-0.281,24.789-15.448,41.939-36.146,46.656c3.421,0.766,6.982,1.219,10.661,1.297c25.945-0.547,46.478-19.072,46.806-47.953
	C138.564,424.356,94.14,386.68,90.632,383.883z"/>
<path style="fill:#CCD1D9;" d="M122.622,138.63c-41.222,0-74.642,33.411-74.642,74.648v95.972h85.31v-22.088l0.094-41.862
	c0-11.73,9.505-21.368,21.236-21.368h-0.766h12.277h291.91V138.63H122.622z"/>
<g>
	<path style="fill:#E6E9ED;" d="M485.191,95.971h-74.664c-11.778,0-21.307,9.56-21.307,21.337v127.961
		c0,11.778,9.528,21.322,21.307,21.322h74.664V95.971z"/>
	<path style="fill:#E6E9ED;" d="M346.547,181.288c0,47.111-38.176,85.303-85.295,85.303c-47.118,0-85.31-38.191-85.31-85.303
		c0-47.126,38.191-85.317,85.31-85.317C308.371,95.971,346.547,134.162,346.547,181.288z"/>
</g>
<path style="fill:#5D9CEC;" d="M325.24,10.669H197.272l0,0c-17.674,0-31.99,14.323-31.99,31.99c0,17.666,14.316,31.99,31.99,31.99
	l0,0h127.969c17.65,0,31.99-14.324,31.99-31.99C357.23,24.992,342.891,10.669,325.24,10.669z"/>
<path style="fill:#E6E9ED;" d="M154.613,330.571c0,11.778-9.544,21.321-21.322,21.321H47.982c-11.777,0-21.329-9.543-21.329-21.321
	V309.25c0-11.777,9.552-21.338,21.329-21.338h85.31c11.778,0,21.322,9.561,21.322,21.338v21.321H154.613z"/>
<g>
</g>
<g>
</g>
<g>
</g>
<g>
</g>
<g>
</g>
<g>
</g>
<g>
</g>
<g>
</g>
<g>
</g>
<g>
</g>
<g>
</g>
<g>
</g>
<g>
</g>
<g>
</g>
<g>
</g>
</svg>
